# xmcd
#
# Track frame offsets:
#      150
#      12222
#      23222
#      34467
#      45870
#      55387
#      76490
#      90815
#      103777
#      112770
#      124437
#      135780
#      148195
#      163075
#      178992
#      190567
# 
# Disc length: 2742 seconds
#
# Revision: 2
# Processed by: cddbd v1.5.2PL0 Copyright (c) Steve Scherf et al.
#
# Submitted via: FreeRIP 1.21
#
DISCID=cb0ab410
DTITLE=Marty Robbins - 16 Biggest Hits
DYEAR=1998
DGENRE=Country
TTITLE0=I'll Go On Alone
TTITLE1=Singing The Blues
TTITLE2=A White Sport Coat and A Pink Carnation
TTITLE3=The Story Of My Life
TTITLE4=Just Married
TTITLE5=El Paso
TTITLE6=Don't Worry
TTITLE7=Devil Woman
TTITLE8=Ruby Ann
TTITLE9=Begging To You
TTITLE10=Ribbon Of Darkness
TTITLE11=Tonight Carmen
TTITLE12=I Walk Alone
TTITLE13=My Woman, My Woman, My Wife
TTITLE14=Among My Souvenirs
TTITLE15=Some Melodies Just Won't Die
EXTD=ID3G:   2
EXTT0=
EXTT1=
EXTT2=
EXTT3=
EXTT4=
EXTT5=
EXTT6=
EXTT7=
EXTT8=
EXTT9=
EXTT10=
EXTT11=
EXTT12=
EXTT13=
EXTT14=
EXTT15=
PLAYORDER=
